<?xml version="1.0" encoding="utf-8"?>
<!-- Generator: Adobe Illustrator 25.4.1, SVG Export Plug-In . SVG Version: 6.00 Build 0)  -->
<svg version="1.1" id="Layer_1" xmlns="http://www.w3.org/2000/svg" xmlns:xlink="http://www.w3.org/1999/xlink" x="0px" y="0px"
	 viewBox="0 0 401.3 96.3" style="enable-background:new 0 0 401.3 96.3;" xml:space="preserve">
<style type="text/css">
	.st0{fill:#81B96C;}
</style>
<g>
	<g>
		<path d="M158.1,2.3v19c0,6.4-4.8,9.5-14.2,9.5h-12c-9.4,0-14.2-3.1-14.2-9.5v-19c0-2.1,1.1-2.6,3.2-2.6c2.1,0,3.2,0.5,3.2,2.6v19
			c0,2.2,2.4,4,8,4h11.6c5.6,0,8-1.7,8-4v-19c0-2.1,1-2.6,3.2-2.6C157-0.2,158.1,0.3,158.1,2.3z"/>
		<path d="M183.6,0c1.5,0,1.8,1,1.8,2.8c0,1.8-0.3,2.7-1.8,2.7h-3.9c-5,0-6.6,1.4-6.6,3.9v19c0,2.1-1,2.6-3.2,2.6
			c-2.1,0-3.2-0.5-3.2-2.6v-19c0-6.3,4.6-9.4,13-9.4H183.6z"/>
		<path d="M208.8,0c1.5,0,1.8,1,1.8,2.8c0,1.8-0.3,2.7-1.8,2.7h-3.9c-5,0-6.6,1.4-6.6,3.9v19c0,2.1-1.1,2.6-3.2,2.6
			c-2.1,0-3.2-0.5-3.2-2.6v-19c0-6.3,4.6-9.4,13-9.4H208.8z"/>
		<path d="M223.5,18.6v2.8c0,2.2,2.4,4,8,4h5.8c1.5,0,1.8,0.9,1.8,2.7s-0.3,2.8-1.8,2.8h-6c-9.4,0-14.2-3.2-14.2-9.5V9.5
			c0-6.4,4.8-9.5,14.2-9.5h11.6c10,0,14.2,3.1,14.2,9.5v6.3c0,2.1-0.5,2.8-3,2.8H223.5z M223.5,13.2h27.2V9.5c0-2.5-2.4-4-8-4h-11.2
			c-5.6,0-8,1.7-8,4V13.2z"/>
		<path d="M265,28.5v-19c0-6.4,4.8-9.5,14.2-9.5H290c9.4,0,14.2,3.1,14.2,9.5v19c0,2.1-1,2.6-3.2,2.6c-2.1,0-3.2-0.5-3.2-2.6v-19
			c0-2.2-2.4-4-8-4h-10.5c-5.6,0-8,1.7-8,4v19c0,2.1-1.1,2.6-3.2,2.6C266,31,265,30.6,265,28.5z"/>
		<path d="M326.7,30.8c-9.4,0-14.2-3.2-14.2-9.5V9.5c0-6.4,4.8-9.5,14.2-9.5h25c1.5,0,1.8,0.9,1.8,2.8c0,1.8-0.3,2.7-1.8,2.7h-24.8
			c-5.6,0-8,1.7-8,4v11.8c0,2.2,2.4,4,8,4h25c1.5,0,1.8,0.9,1.8,2.7s-0.3,2.8-1.8,2.8H326.7z"/>
		<path d="M395,24.6V2.3c0-2.1,1.1-2.6,3.2-2.6c2.2,0,3.2,0.5,3.2,2.6v28c0,6.3-4.6,9.4-13,9.4h-6.9c-1.5,0-1.8-1-1.8-2.8
			s0.3-2.7,1.8-2.7h6.9c5,0,6.6-1.4,6.6-3.9v-0.3h-19c-9.4,0-14.2-3.1-14.2-9.5V2.3c0-2.1,1-2.6,3.2-2.6c2.1,0,3.2,0.5,3.2,2.6v18.3
			c0,2.2,2.4,3.9,8,3.9H395z"/>
		<path d="M131.7,65.5h10.9c9.4,0,14.2,3.1,14.2,9.5v11.8c0,6.3-4.8,9.5-14.2,9.5h-10.9c-9.4,0-14.2-3.2-14.2-9.5V75
			C117.6,68.6,122.3,65.5,131.7,65.5z M150.4,75c0-2.2-2.4-4-8-4h-10.5c-5.6,0-8,1.7-8,4v11.8c0,2.2,2.4,4,8,4h10.5c5.6,0,8-1.8,8-4
			V75z"/>
		<path d="M160.8,94V75c0-6.4,4.8-9.5,14.2-9.5h10.9c9.4,0,14.2,3.1,14.2,9.5v19c0,2.1-1,2.6-3.2,2.6c-2.1,0-3.2-0.5-3.2-2.6V75
			c0-2.2-2.4-4-8-4h-10.5c-5.6,0-8,1.7-8,4v19c0,2.1-1,2.6-3.2,2.6C161.9,96.5,160.8,96,160.8,94z"/>
		<path d="M221.1,95.1l-19.7-26.6c-0.3-0.4-0.5-0.8-0.5-1.1c0-1.3,1.7-2.1,3.8-2.1c1.1,0,2.5,0.3,3.1,1.3l16.8,22.9l16.8-23
			c0.6-0.9,1.9-1.2,3-1.2c1.8,0,3.5,0.8,3.5,2c0,0.4-0.1,0.8-0.4,1.2l-19.5,26.6c-0.7,1-1.8,1.5-3.5,1.5S221.8,96,221.1,95.1z"/>
		<path d="M255,84v2.8c0,2.2,2.4,4,8,4h5.8c1.5,0,1.8,0.9,1.8,2.7s-0.3,2.8-1.8,2.8h-6c-9.4,0-14.2-3.2-14.2-9.5V75
			c0-6.4,4.8-9.5,14.2-9.5h11.6c10,0,14.2,3.1,14.2,9.5v6.3c0,2.1-0.5,2.8-3,2.8H255z M255,78.6h27.2V75c0-2.5-2.4-4-8-4H263
			c-5.6,0-8,1.7-8,4V78.6z"/>
		<path d="M309,65.5c1.5,0,1.8,1,1.8,2.8S310.5,71,309,71h-3.9c-5,0-6.6,1.4-6.6,3.9v19c0,2.1-1.1,2.6-3.2,2.6
			c-2.1,0-3.2-0.5-3.2-2.6v-19c0-6.3,4.6-9.4,13-9.4H309z"/>
		<path d="M317.7,65.5v-6.4c0-2.1,1.1-2.6,3.2-2.6c2.2,0,3.2,0.5,3.2,2.6v6.4h10.6c1.5,0,1.8,1,1.8,2.8s-0.3,2.7-1.8,2.7H324v23
			c0,2.1-1,2.6-3.2,2.6c-2.1,0-3.2-0.5-3.2-2.6V71h-2.8c-1.5,0-1.8-0.9-1.8-2.7s0.3-2.8,1.8-2.8H317.7z"/>
		<path d="M344.4,84v2.8c0,2.2,2.4,4,8,4h5.8c1.5,0,1.8,0.9,1.8,2.7s-0.3,2.8-1.8,2.8h-6c-9.4,0-14.2-3.2-14.2-9.5V75
			c0-6.4,4.8-9.5,14.2-9.5h11.6c10,0,14.2,3.1,14.2,9.5v6.3c0,2.1-0.5,2.8-3,2.8H344.4z M344.4,78.6h27.2V75c0-2.5-2.4-4-8-4h-11.2
			c-5.6,0-8,1.7-8,4V78.6z"/>
		<path d="M398.4,65.5c1.5,0,1.8,1,1.8,2.8s-0.3,2.7-1.8,2.7h-3.9c-5,0-6.6,1.4-6.6,3.9v19c0,2.1-1.1,2.6-3.2,2.6
			c-2.1,0-3.2-0.5-3.2-2.6v-19c0-6.3,4.6-9.4,13-9.4H398.4z"/>
	</g>
	<g>
		<path class="st0" d="M39.3,96.7C13.2,96.7,0,88.4,0,71.9V25C0,8.4,13.2,0.3,39.3,0.3h65.1c4.3,0,5.2,2.4,5.2,7.2
			c0,4.8-0.9,7.2-5.2,7.2H39.9c-15.5,0-22.3,4.5-22.3,10.4v46.9c0,5.7,6.8,10.4,22.3,10.4h64.7c4.3,0,5,2.4,5,7.2
			c0,4.7-0.8,7.2-5,7.2H39.3z"/>
	</g>
</g>
</svg>
